<svg width="1440" height="462" viewBox="0 0 1440 462" fill="none" xmlns="http://www.w3.org/2000/svg">
<path d="M1016.23 562.501L1014.5 151.587M1082.23 43.5868L1015.15 86.982C1014.58 87.3522 1014.23 87.9883 1014.24 88.6698L1014.5 151.587M1082.23 43.5868L1127.12 86.9864C1127.51 87.3633 1127.73 87.8822 1127.73 88.4243L1127.73 258.587M1082.23 43.5868C1082.24 51.1036 1082.25 58.9514 1082.25 67.0866M1081.93 592.326C1082.23 592.326 1082.48 367.744 1082.36 201.087M1127.73 588.901L1127.73 258.587M1127.73 258.587L1191.73 201.087M1191.73 201.087L1191.73 585.976M1191.73 201.087L1211.73 227.587M1211.73 227.587L1211.73 583.051M1211.73 227.587L1224.23 227.587M1224.23 227.587L1224.23 166.449C1224.23 165.899 1224.46 165.373 1224.86 164.995L1269.23 123.087M1224.23 227.587L1224.23 580.126M1269.23 123.087L1269.23 576.201M1269.23 123.087L1336.73 123.087M1336.73 123.087L1336.73 572.776M1336.73 123.087L1380.61 164.996C1381.01 165.373 1381.23 165.896 1381.23 166.442L1381.23 569.851M1406.73 565.926L1406.73 329.587C1406.73 328.482 1407.63 327.587 1408.73 327.587L1454.5 327.587M1277.23 138.587L1328.23 138.587M1277.23 159.587L1328.23 159.587M1277.23 179.587L1328.23 179.587M1277.23 201.087L1328.23 201.087M1277.23 219.587L1328.23 219.587M1277.23 241.587L1328.23 241.587M1277.23 261.087L1328.23 261.087M1277.23 281.587L1328.23 281.587M1277.23 301.587L1328.23 301.587M1277.23 323.087L1328.23 323.087M1277.23 343.087L1328.23 343.087M1277.23 362.087L1328.23 362.087M1277.23 382.087L1328.23 382.087M1014.5 151.587L986.35 178.496C985.955 178.873 985.732 179.396 985.732 179.942L985.732 341.087C985.732 342.191 984.836 343.087 983.732 343.087L954.732 343.087C953.627 343.087 952.732 342.191 952.732 341.087L952.732 300.087C952.732 298.982 951.836 298.087 950.732 298.087L935.732 298.087M877.232 129.087L909.1 158.994C909.503 159.372 909.732 159.9 909.732 160.452L909.732 215.087M877.232 129.087L877.232 102.462C877.232 101.904 876.998 101.371 876.588 100.993L870.732 95.5866L834.5 58.501M877.232 129.087L877.232 215.087M877.232 215.087L870.732 215.087L834.5 215.087M877.232 215.087L909.732 215.087M909.732 215.087L909.732 296.087C909.732 297.191 910.627 298.087 911.732 298.087L935.732 298.087M909.732 215.087L935.088 238.493C935.499 238.871 935.732 239.404 935.732 239.962L935.732 298.087M1024.23 250.087L1074.73 219.587M1024.23 219.587L1074.73 190.587M1024.23 190.587L1074.73 159.587M1024.23 159.587L1074.73 131.087M1022.73 131.087L1074.73 100.587M1082.25 67.0866L1122.73 109.587M1082.25 67.0866C1082.26 78.2499 1082.27 89.9542 1082.28 102.087M1082.28 102.087L1122.73 143.087M1082.28 102.087C1082.29 112.622 1082.3 123.48 1082.31 134.587M1082.31 134.587L1122.73 176.587M1082.31 134.587C1082.32 145.375 1082.33 156.397 1082.34 167.587M1082.34 167.587L1122.73 210.087M1082.34 167.587C1082.35 178.613 1082.35 189.801 1082.36 201.087M1082.36 201.087L1122.73 243.087M1024.23 311.587L1074.73 280.587M1024.23 280.587L1074.73 252.087M1082.37 232.587L1122.81 273.587M1082.39 265.087L1122.81 307.087M-79.9988 216.001L-42.1328 251.408C-41.7284 251.786 -41.4988 252.315 -41.4988 252.869L-41.4988 309.721C-41.4988 310.223 -41.3106 310.706 -40.9715 311.075L-25.0262 328.427C-24.687 328.796 -24.4988 329.279 -24.4988 329.78L-24.4988 380.827C-24.4988 382.586 -22.3906 383.488 -21.1179 382.274L-3.1171 365.092C-2.72173 364.714 -2.49803 364.191 -2.49803 363.645L-2.498 146.481C-2.498 145.863 -2.21179 145.279 -1.7228 144.9L139.502 35.5005L181.501 3.50054M-79.9988 216.001L-79.9988 430.501M-79.9988 216.001L-156.999 216.001M-156.999 216.001L-156.999 408.501M-156.999 216.001L-187.866 244.908C-188.27 245.286 -188.499 245.815 -188.499 246.368L-188.499 354.001C-188.499 355.105 -189.394 356.001 -190.499 356.001L-194.499 356.001C-195.603 356.001 -196.499 356.896 -196.499 358.001L-196.499 430.501M-332.499 308.501L-319.499 296.501M-319.499 296.501L-319.499 471.501M-319.499 296.501L-223.999 296.501C-222.894 296.501 -221.999 297.396 -221.999 298.501L-221.999 487.001M4.50119 188.001L139.502 82.0007M4.50124 235.001L139.502 130.001M4.50116 285.001L139.502 179.001M4.50121 329.001L139.502 227.501M4.5012 381.501L127.001 285.001M15.0012 430.501L127.001 341.501M125.501 399.501L73.0012 442.501M181.501 3.50054L236.897 57.4116C237.284 57.7881 237.502 58.3051 237.502 58.8449L237.502 277L237.502 279L237.502 279.14C237.502 279.689 237.728 280.214 238.127 280.592L255.878 297.409C256.276 297.787 256.502 298.312 256.502 298.861L256.502 371C256.502 372.105 257.397 373 258.502 373L267.002 373C268.107 373 269.002 372.105 269.002 371L269.002 93.5005C269.002 92.3959 269.897 91.5005 271.002 91.5005L362.002 91.5005M181.501 3.50054L181.501 9.50071L181.501 430.501L181.501 575.5M362.002 91.5005L362.002 247.5M362.002 91.5005L403.941 134.919C404.301 135.292 404.502 135.79 404.502 136.309L404.502 161M362.002 247.5L362.002 430.501L362.002 570.5M362.002 247.5L404.502 247.5M464.002 331L464.002 272.365C464.002 271.813 463.774 271.286 463.373 270.908L439.08 248.044C438.709 247.695 438.218 247.5 437.709 247.5L404.502 247.5M464.002 331L553.5 331M464.002 331L440.502 331C439.397 331 438.502 330.105 438.502 329L438.502 193.865C438.502 193.313 438.274 192.786 437.873 192.408L404.502 161M404.502 161L404.502 247.5M276.502 144.5L351.502 144.5M276.502 170L351.502 170M276.502 194.5L351.502 194.5M276.502 219.5L351.502 219.5M276.502 243.5L351.502 243.5M276.502 269.5L351.502 269.5M276.502 294.5L351.502 294.5M276.502 318.5L351.502 318.5M276.502 345L351.502 345M834.5 569.851L834.5 269.012L834.5 215.087M834.5 58.501L834.5 215.087M834.5 58.501L743 58.501C741.895 58.501 741 59.3964 741 60.501L741 337.001C741 338.106 740.105 339.001 739 339.001L730 339.001C728.895 339.001 728 338.106 728 337.001L728 266.001L728 265.8C728 265.287 727.803 264.794 727.45 264.422L709.55 245.58C709.197 245.208 709 244.715 709 244.202L709 195.534C709 195.049 708.823 194.58 708.503 194.215L671 151.501M671 151.501L671 569.851M671 151.501L593 151.501M593 151.501L593 565.926M593 151.501L563.122 179.91C562.725 180.287 562.5 180.811 562.5 181.359L562.5 289.501L562.5 290.001C562.5 291.106 561.605 292.001 560.5 292.001L555.5 292.001C554.395 292.001 553.5 292.896 553.5 294.001L553.5 569.851" stroke="#B9DEF5" stroke-opacity="0.3" stroke-width="5" stroke-linecap="round"/>
</svg>
