<svg width="130" height="24" viewBox="0 0 130 24" fill="none" xmlns="http://www.w3.org/2000/svg">
<g clip-path="url(#clip0_8002_54501)">
<path d="M10.8586 1.51869C10.7678 1.44108 10.6524 1.39844 10.533 1.39844C10.4136 1.39844 10.2981 1.44108 10.2074 1.51869L3.01953 7.67972V14.9227C3.01953 15.3212 3.17785 15.7034 3.45966 15.9852C3.74147 16.2671 4.12368 16.4254 4.52222 16.4254H8.5294C8.66224 16.4254 8.78965 16.3726 8.88358 16.2787C8.97752 16.1847 9.03029 16.0573 9.03029 15.9245V12.9191C9.03029 12.5206 9.18861 12.1383 9.47042 11.8565C9.75223 11.5747 10.1344 11.4164 10.533 11.4164C10.9315 11.4164 11.3137 11.5747 11.5955 11.8565C11.8774 12.1383 12.0357 12.5206 12.0357 12.9191V15.9245C12.0357 16.0573 12.0884 16.1847 12.1824 16.2787C12.2763 16.3726 12.4037 16.4254 12.5366 16.4254H16.5437C16.9423 16.4254 17.3245 16.2671 17.6063 15.9852C17.8881 15.7034 18.0464 15.3212 18.0464 14.9227V7.67972L10.8586 1.51869Z" fill="white"/>
<path d="M1.31445 17.4395H19.7524" stroke="#0A9BF4" stroke-width="0.921896"/>
<path d="M3.01953 18.8223H18.0464" stroke="#F9B223" stroke-width="0.921896"/>
<path d="M32.1372 12.9933H34.0463L35.177 14.4592L35.9838 15.4137L37.9213 17.9023H35.8759L34.5577 16.2319L33.9952 15.4364L32.1372 12.9933ZM38.1997 11.0842C38.1997 12.3379 37.9649 13.4118 37.4952 14.3058C37.0293 15.1959 36.3929 15.8777 35.5861 16.3512C34.7831 16.8247 33.8721 17.0614 32.8532 17.0614C31.8342 17.0614 30.9213 16.8247 30.1145 16.3512C29.3115 15.8739 28.6751 15.1902 28.2054 14.3001C27.7395 13.4061 27.5066 12.3342 27.5066 11.0842C27.5066 9.83037 27.7395 8.7584 28.2054 7.86825C28.6751 6.97431 29.3115 6.2906 30.1145 5.81711C30.9213 5.34363 31.8342 5.10689 32.8532 5.10689C33.8721 5.10689 34.7831 5.34363 35.5861 5.81711C36.3929 6.2906 37.0293 6.97431 37.4952 7.86825C37.9649 8.7584 38.1997 9.83037 38.1997 11.0842ZM36.0804 11.0842C36.0804 10.2016 35.9422 9.45727 35.6657 8.85121C35.3929 8.24136 35.0141 7.78113 34.5293 7.47052C34.0444 7.15613 33.4857 6.99893 32.8532 6.99893C32.2206 6.99893 31.6619 7.15613 31.177 7.47052C30.6922 7.78113 30.3115 8.24136 30.035 8.85121C29.7622 9.45727 29.6259 10.2016 29.6259 11.0842C29.6259 11.9667 29.7622 12.7129 30.035 13.3228C30.3115 13.9289 30.6922 14.3891 31.177 14.7035C31.6619 15.0141 32.2206 15.1694 32.8532 15.1694C33.4857 15.1694 34.0444 15.0141 34.5293 14.7035C35.0141 14.3891 35.3929 13.9289 35.6657 13.3228C35.9422 12.7129 36.0804 11.9667 36.0804 11.0842ZM42.6287 17.0785C42.0757 17.0785 41.5776 16.98 41.1344 16.783C40.695 16.5823 40.3465 16.2868 40.089 15.8967C39.8352 15.5065 39.7083 15.0254 39.7083 14.4535C39.7083 13.9611 39.7992 13.5539 39.981 13.2319C40.1628 12.9099 40.4109 12.6523 40.7253 12.4592C41.0397 12.266 41.3939 12.1201 41.7878 12.0217C42.1855 11.9194 42.5965 11.8455 43.0208 11.8001C43.5321 11.747 43.9469 11.6997 44.2651 11.658C44.5833 11.6126 44.8143 11.5444 44.9583 11.4535C45.106 11.3588 45.1799 11.2129 45.1799 11.016V10.9819C45.1799 10.5539 45.053 10.2224 44.7992 9.98757C44.5454 9.75272 44.1799 9.6353 43.7026 9.6353C43.1988 9.6353 42.7992 9.74515 42.5037 9.96484C42.2121 10.1845 42.0151 10.444 41.9128 10.7433L39.9924 10.4705C40.1439 9.94022 40.3939 9.49704 40.7424 9.14098C41.0908 8.78113 41.517 8.51219 42.0208 8.33416C42.5246 8.15234 43.0814 8.06143 43.6912 8.06143C44.1117 8.06143 44.5302 8.11068 44.9469 8.20916C45.3636 8.30765 45.7443 8.47052 46.089 8.6978C46.4337 8.92128 46.7102 9.22621 46.9185 9.61257C47.1306 9.99893 47.2367 10.4819 47.2367 11.0614V16.9023H45.2594V15.7035H45.1912C45.0662 15.9459 44.8901 16.1732 44.6628 16.3853C44.4393 16.5936 44.1571 16.7622 43.8162 16.891C43.4791 17.016 43.0833 17.0785 42.6287 17.0785ZM43.1628 15.5671C43.5757 15.5671 43.9337 15.4857 44.2367 15.3228C44.5397 15.1561 44.7727 14.9364 44.9355 14.6637C45.1022 14.391 45.1855 14.0936 45.1855 13.7717V12.7433C45.1212 12.7963 45.0113 12.8455 44.856 12.891C44.7045 12.9364 44.534 12.9762 44.3446 13.0103C44.1552 13.0444 43.9677 13.0747 43.7821 13.1012C43.5965 13.1277 43.4355 13.1504 43.2992 13.1694C42.9924 13.2111 42.7177 13.2792 42.4753 13.3739C42.2329 13.4686 42.0416 13.6012 41.9015 13.7717C41.7613 13.9383 41.6912 14.1542 41.6912 14.4194C41.6912 14.7982 41.8295 15.0842 42.106 15.2773C42.3825 15.4705 42.7348 15.5671 43.1628 15.5671ZM53.1117 17.0728C52.2405 17.0728 51.4924 16.8815 50.8674 16.4989C50.2462 16.1164 49.767 15.5879 49.4299 14.9137C49.0965 14.2357 48.9299 13.4554 48.9299 12.5728C48.9299 11.6864 49.1003 10.9042 49.4412 10.2262C49.7821 9.54439 50.2632 9.01408 50.8844 8.6353C51.5094 8.25272 52.248 8.06143 53.1003 8.06143C53.8087 8.06143 54.4355 8.19212 54.981 8.45348C55.5302 8.71105 55.9677 9.07659 56.2935 9.55007C56.6193 10.0198 56.8049 10.569 56.8503 11.1978H54.8844C54.8049 10.7773 54.6155 10.427 54.3162 10.1467C54.0208 9.86257 53.6249 9.72052 53.1287 9.72052C52.7083 9.72052 52.339 9.83416 52.0208 10.0614C51.7026 10.2849 51.4545 10.6069 51.2765 11.0273C51.1022 11.4478 51.0151 11.9516 51.0151 12.5387C51.0151 13.1334 51.1022 13.6448 51.2765 14.0728C51.4507 14.497 51.695 14.8247 52.0094 15.0558C52.3276 15.283 52.7007 15.3967 53.1287 15.3967C53.4318 15.3967 53.7026 15.3398 53.9412 15.2262C54.1837 15.1088 54.3863 14.9402 54.5492 14.7205C54.7121 14.5008 54.8238 14.2338 54.8844 13.9194H56.8503C56.8011 14.5368 56.6193 15.0842 56.3049 15.5614C55.9905 16.0349 55.5624 16.4061 55.0208 16.6751C54.4791 16.9402 53.8427 17.0728 53.1117 17.0728ZM62.4029 17.0728C61.5279 17.0728 60.7722 16.891 60.1358 16.5273C59.5033 16.1599 59.0165 15.641 58.6756 14.9705C58.3347 14.2963 58.1642 13.5027 58.1642 12.5898C58.1642 11.6921 58.3347 10.9042 58.6756 10.2262C59.0203 9.54439 59.5014 9.01408 60.1188 8.6353C60.7362 8.25272 61.4616 8.06143 62.2949 8.06143C62.8328 8.06143 63.3404 8.14855 63.8177 8.3228C64.2987 8.49325 64.723 8.7584 65.0904 9.11825C65.4616 9.4781 65.7533 9.93643 65.9654 10.4933C66.1775 11.0463 66.2836 11.7054 66.2836 12.4705V13.1012H59.1301V11.7148H64.312C64.3082 11.3209 64.223 10.9705 64.0563 10.6637C63.8896 10.3531 63.6567 10.1088 63.3574 9.93075C63.062 9.75272 62.7173 9.66371 62.3233 9.66371C61.9029 9.66371 61.5336 9.76598 61.2154 9.97052C60.8972 10.1713 60.6491 10.4364 60.4711 10.766C60.2968 11.0917 60.2078 11.4497 60.204 11.8398V13.0501C60.204 13.5576 60.2968 13.9933 60.4824 14.3569C60.668 14.7167 60.9275 14.9933 61.2608 15.1864C61.5942 15.3758 61.9843 15.4705 62.4313 15.4705C62.7305 15.4705 63.0014 15.4289 63.2438 15.3455C63.4862 15.2584 63.6964 15.1315 63.8745 14.9648C64.0525 14.7982 64.187 14.5917 64.2779 14.3455L66.1983 14.5614C66.0771 15.069 65.8461 15.5122 65.5052 15.891C65.168 16.266 64.7362 16.5576 64.2097 16.766C63.6832 16.9705 63.0809 17.0728 62.4029 17.0728ZM68.1145 16.9023V5.26598H70.2225V10.1921H75.6145V5.26598H77.7282V16.9023H75.6145V11.9592H70.2225V16.9023H68.1145ZM83.7367 17.0728C82.8844 17.0728 82.1458 16.8853 81.5208 16.5103C80.8958 16.1353 80.4109 15.6107 80.0662 14.9364C79.7253 14.2622 79.5549 13.4743 79.5549 12.5728C79.5549 11.6713 79.7253 10.8815 80.0662 10.2035C80.4109 9.52545 80.8958 8.99893 81.5208 8.62393C82.1458 8.24893 82.8844 8.06143 83.7367 8.06143C84.589 8.06143 85.3276 8.24893 85.9526 8.62393C86.5776 8.99893 87.0606 9.52545 87.4015 10.2035C87.7462 10.8815 87.9185 11.6713 87.9185 12.5728C87.9185 13.4743 87.7462 14.2622 87.4015 14.9364C87.0606 15.6107 86.5776 16.1353 85.9526 16.5103C85.3276 16.8853 84.589 17.0728 83.7367 17.0728ZM83.7481 15.4251C84.2102 15.4251 84.5965 15.2982 84.9071 15.0444C85.2177 14.7868 85.4488 14.4421 85.6003 14.0103C85.7556 13.5785 85.8333 13.0974 85.8333 12.5671C85.8333 12.033 85.7556 11.5501 85.6003 11.1183C85.4488 10.6826 85.2177 10.3361 84.9071 10.0785C84.5965 9.8209 84.2102 9.69212 83.7481 9.69212C83.2746 9.69212 82.8806 9.8209 82.5662 10.0785C82.2556 10.3361 82.0227 10.6826 81.8674 11.1183C81.7159 11.5501 81.6401 12.033 81.6401 12.5671C81.6401 13.0974 81.7159 13.5785 81.8674 14.0103C82.0227 14.4421 82.2556 14.7868 82.5662 15.0444C82.8806 15.2982 83.2746 15.4251 83.7481 15.4251ZM89.6642 16.9023V8.17507H91.6302V9.65802H91.7324C91.9142 9.15802 92.2154 8.76787 92.6358 8.48757C93.0563 8.20348 93.5582 8.06143 94.1415 8.06143C94.7324 8.06143 95.2305 8.20537 95.6358 8.49325C96.0449 8.77734 96.3328 9.1656 96.4995 9.65802H96.5904C96.7836 9.17318 97.1093 8.78681 97.5677 8.49893C98.0298 8.20727 98.5771 8.06143 99.2097 8.06143C100.013 8.06143 100.668 8.31522 101.176 8.8228C101.683 9.33037 101.937 10.0709 101.937 11.0444V16.9023H99.8745V11.3626C99.8745 10.8209 99.7305 10.4251 99.4427 10.1751C99.1548 9.92128 98.8025 9.79439 98.3858 9.79439C97.8896 9.79439 97.5014 9.94969 97.2211 10.2603C96.9445 10.5671 96.8063 10.9667 96.8063 11.4592V16.9023H94.7892V11.2773C94.7892 10.8266 94.6529 10.4667 94.3802 10.1978C94.1112 9.92886 93.7589 9.79439 93.3233 9.79439C93.0279 9.79439 92.7589 9.87015 92.5165 10.0217C92.2741 10.1694 92.0809 10.3796 91.937 10.6523C91.793 10.9213 91.7211 11.2357 91.7211 11.5955V16.9023H89.6642ZM107.887 17.0728C107.012 17.0728 106.257 16.891 105.62 16.5273C104.988 16.1599 104.501 15.641 104.16 14.9705C103.819 14.2963 103.649 13.5027 103.649 12.5898C103.649 11.6921 103.819 10.9042 104.16 10.2262C104.505 9.54439 104.986 9.01408 105.603 8.6353C106.221 8.25272 106.946 8.06143 107.779 8.06143C108.317 8.06143 108.825 8.14855 109.302 8.3228C109.783 8.49325 110.207 8.7584 110.575 9.11825C110.946 9.4781 111.238 9.93643 111.45 10.4933C111.662 11.0463 111.768 11.7054 111.768 12.4705V13.1012H104.615V11.7148H109.796C109.793 11.3209 109.707 10.9705 109.541 10.6637C109.374 10.3531 109.141 10.1088 108.842 9.93075C108.546 9.75272 108.202 9.66371 107.808 9.66371C107.387 9.66371 107.018 9.76598 106.7 9.97052C106.382 10.1713 106.133 10.4364 105.955 10.766C105.781 11.0917 105.692 11.4497 105.688 11.8398V13.0501C105.688 13.5576 105.781 13.9933 105.967 14.3569C106.152 14.7167 106.412 14.9933 106.745 15.1864C107.079 15.3758 107.469 15.4705 107.916 15.4705C108.215 15.4705 108.486 15.4289 108.728 15.3455C108.971 15.2584 109.181 15.1315 109.359 14.9648C109.537 14.7982 109.671 14.5917 109.762 14.3455L111.683 14.5614C111.561 15.069 111.33 15.5122 110.99 15.891C110.652 16.266 110.221 16.5576 109.694 16.766C109.168 16.9705 108.565 17.0728 107.887 17.0728ZM120.406 10.4819L118.531 10.6864C118.478 10.497 118.385 10.319 118.252 10.1523C118.124 9.98568 117.949 9.85121 117.73 9.74893C117.51 9.64666 117.241 9.59552 116.923 9.59552C116.495 9.59552 116.135 9.68833 115.843 9.87393C115.555 10.0595 115.413 10.3001 115.417 10.5955C115.413 10.8493 115.506 11.0558 115.695 11.2148C115.889 11.3739 116.207 11.5046 116.65 11.6069L118.139 11.9251C118.964 12.1031 119.578 12.3853 119.98 12.7717C120.385 13.158 120.589 13.6637 120.593 14.2887C120.589 14.8379 120.428 15.3228 120.11 15.7433C119.796 16.1599 119.358 16.4857 118.798 16.7205C118.237 16.9554 117.593 17.0728 116.866 17.0728C115.798 17.0728 114.938 16.8493 114.286 16.4023C113.635 15.9516 113.247 15.3247 113.122 14.5217L115.127 14.3285C115.218 14.7224 115.411 15.0198 115.707 15.2205C116.002 15.4213 116.387 15.5217 116.86 15.5217C117.349 15.5217 117.741 15.4213 118.036 15.2205C118.336 15.0198 118.485 14.7717 118.485 14.4762C118.485 14.2262 118.389 14.0198 118.195 13.8569C118.006 13.694 117.711 13.569 117.309 13.4819L115.82 13.1694C114.983 12.9951 114.364 12.7016 113.963 12.2887C113.561 11.872 113.362 11.3455 113.366 10.7092C113.362 10.1713 113.508 9.70537 113.803 9.31143C114.103 8.91371 114.517 8.60689 115.048 8.39098C115.582 8.17128 116.197 8.06143 116.894 8.06143C117.917 8.06143 118.722 8.27924 119.309 8.71484C119.9 9.15045 120.266 9.73946 120.406 10.4819Z" fill="white"/>
<path d="M123.789 2.08135C124.295 2.08135 124.744 2.19365 125.137 2.41825C125.538 2.63483 125.847 2.93964 126.064 3.33268C126.288 3.72573 126.4 4.17492 126.4 4.68026C126.4 5.17758 126.288 5.62678 126.064 6.02784C125.847 6.42089 125.538 6.72971 125.137 6.95431C124.744 7.17088 124.295 7.27917 123.789 7.27917C123.284 7.27917 122.831 7.17088 122.43 6.95431C122.037 6.72971 121.728 6.42089 121.503 6.02784C121.279 5.62678 121.167 5.17758 121.167 4.68026C121.167 4.17492 121.279 3.72573 121.503 3.33268C121.728 2.93964 122.037 2.63483 122.43 2.41825C122.831 2.19365 123.284 2.08135 123.789 2.08135ZM123.789 6.60538C124.367 6.60538 124.828 6.42891 125.173 6.07597C125.518 5.72303 125.691 5.2578 125.691 4.68026C125.691 4.10273 125.518 3.63749 125.173 3.28455C124.828 2.93161 124.367 2.75515 123.789 2.75515C123.212 2.75515 122.751 2.93161 122.406 3.28455C122.061 3.63749 121.888 4.10273 121.888 4.68026C121.888 5.2578 122.061 5.72303 122.406 6.07597C122.751 6.42891 123.212 6.60538 123.789 6.60538ZM124.957 4.19898C124.957 4.36743 124.912 4.51583 124.824 4.64417C124.744 4.77251 124.632 4.86876 124.487 4.93293L125.101 5.91956H124.114L123.633 5.02919H123.561V5.91956H122.695V3.36878H124.03C124.311 3.36878 124.535 3.44498 124.704 3.59738C124.872 3.74979 124.957 3.95032 124.957 4.19898ZM123.549 4.43962H123.886C124.014 4.43962 124.078 4.37946 124.078 4.25914C124.078 4.14684 124.014 4.0907 123.886 4.0907H123.549V4.43962Z" fill="white"/>
</g>
<defs>
<clipPath id="clip0_8002_54501">
<rect width="129.114" height="24" fill="white" transform="translate(0.443359)"/>
</clipPath>
</defs>
</svg>
