<svg width="152" height="34" viewBox="0 0 152 34" fill="none" xmlns="http://www.w3.org/2000/svg">
<path d="M15.1544 2.79781C15.0103 2.67494 14.827 2.60742 14.6374 2.60742C14.4479 2.60742 14.2645 2.67494 14.1205 2.79781L2.70801 12.5528V24.0208C2.70801 24.6518 2.95938 25.257 3.40682 25.7032C3.85426 26.1494 4.46112 26.4001 5.09389 26.4001H11.4562C11.6672 26.4001 11.8695 26.3165 12.0186 26.1678C12.1678 26.0191 12.2515 25.8173 12.2515 25.607V20.8485C12.2515 20.2175 12.5029 19.6123 12.9503 19.1661C13.3978 18.7199 14.0046 18.4692 14.6374 18.4692C15.2702 18.4692 15.8771 18.7199 16.3245 19.1661C16.7719 19.6123 17.0233 20.2175 17.0233 20.8485V25.607C17.0233 25.8173 17.1071 26.0191 17.2562 26.1678C17.4054 26.3165 17.6077 26.4001 17.8186 26.4001H24.181C24.8137 26.4001 25.4206 26.1494 25.868 25.7032C26.3155 25.257 26.5668 24.6518 26.5668 24.0208V12.5528L15.1544 2.79781Z" fill="#2B47D9"/>
<path d="M0 28.3926H29.2746" stroke="#0A9BF4" stroke-width="2"/>
<path d="M2.70801 31.3926H26.5668" stroke="#F9B223" stroke-width="2"/>
<path d="M47.4248 26.6126C46.3981 26.6126 45.4381 26.4259 44.5448 26.0526C43.6648 25.6792 42.8914 25.1659 42.2248 24.5126C41.5581 23.8459 41.0381 23.0726 40.6648 22.1926C40.3048 21.2992 40.1248 20.3459 40.1248 19.3326C40.1248 18.3192 40.3048 17.3792 40.6648 16.5126C41.0381 15.6326 41.5514 14.8659 42.2048 14.2126C42.8714 13.5459 43.6448 13.0326 44.5248 12.6726C45.4048 12.2992 46.3581 12.1126 47.3848 12.1126C48.4114 12.1126 49.3648 12.2992 50.2448 12.6726C51.1248 13.0326 51.8981 13.5459 52.5648 14.2126C53.2314 14.8659 53.7448 15.6326 54.1048 16.5126C54.4781 17.3926 54.6648 18.3392 54.6648 19.3526C54.6648 20.3659 54.4781 21.3126 54.1048 22.1926C53.7448 23.0726 53.2314 23.8459 52.5648 24.5126C51.9114 25.1659 51.1448 25.6792 50.2648 26.0526C49.3848 26.4259 48.4381 26.6126 47.4248 26.6126ZM47.3848 24.0726C48.2781 24.0726 49.0581 23.8726 49.7248 23.4726C50.4048 23.0726 50.9314 22.5192 51.3048 21.8126C51.6914 21.1059 51.8848 20.2792 51.8848 19.3326C51.8848 18.6392 51.7714 18.0059 51.5448 17.4326C51.3314 16.8592 51.0248 16.3659 50.6248 15.9526C50.2248 15.5259 49.7514 15.1992 49.2048 14.9726C48.6581 14.7459 48.0514 14.6326 47.3848 14.6326C46.5048 14.6326 45.7248 14.8326 45.0448 15.2326C44.3781 15.6192 43.8514 16.1659 43.4648 16.8726C43.0914 17.5792 42.9048 18.3992 42.9048 19.3326C42.9048 20.0392 43.0114 20.6859 43.2248 21.2726C43.4514 21.8592 43.7581 22.3592 44.1448 22.7726C44.5448 23.1859 45.0181 23.5059 45.5648 23.7326C46.1248 23.9592 46.7314 24.0726 47.3848 24.0726ZM53.7648 27.4326L47.3248 20.9926L48.9648 19.3326L55.4248 25.7926L53.7648 27.4326ZM60.991 26.5926C60.111 26.5926 59.3177 26.3726 58.611 25.9326C57.9043 25.4926 57.351 24.8926 56.951 24.1326C56.551 23.3726 56.351 22.5192 56.351 21.5726C56.351 20.6126 56.551 19.7526 56.951 18.9926C57.351 18.2326 57.9043 17.6326 58.611 17.1926C59.3177 16.7526 60.111 16.5326 60.991 16.5326C61.6843 16.5326 62.3043 16.6726 62.851 16.9526C63.3977 17.2326 63.831 17.6259 64.151 18.1326C64.4843 18.6259 64.6643 19.1859 64.691 19.8126V23.2926C64.6643 23.9326 64.4843 24.4992 64.151 24.9926C63.831 25.4859 63.3977 25.8792 62.851 26.1726C62.3043 26.4526 61.6843 26.5926 60.991 26.5926ZM61.471 24.1726C62.2043 24.1726 62.7977 23.9326 63.251 23.4526C63.7043 22.9592 63.931 22.3259 63.931 21.5526C63.931 21.0459 63.8243 20.5992 63.611 20.2126C63.411 19.8126 63.1243 19.5059 62.751 19.2926C62.391 19.0659 61.9643 18.9526 61.471 18.9526C60.991 18.9526 60.5643 19.0659 60.191 19.2926C59.831 19.5059 59.5443 19.8126 59.331 20.2126C59.131 20.5992 59.031 21.0459 59.031 21.5526C59.031 22.0726 59.131 22.5326 59.331 22.9326C59.5443 23.3192 59.831 23.6259 60.191 23.8526C60.5643 24.0659 60.991 24.1726 61.471 24.1726ZM63.791 26.3926V23.7926L64.211 21.4326L63.791 19.1126V16.7326H66.391V26.3926H63.791ZM73.2688 26.5926C72.2822 26.5926 71.3955 26.3726 70.6088 25.9326C69.8222 25.4926 69.2022 24.8926 68.7488 24.1326C68.2955 23.3726 68.0688 22.5192 68.0688 21.5726C68.0688 20.6126 68.2955 19.7526 68.7488 18.9926C69.2022 18.2326 69.8222 17.6326 70.6088 17.1926C71.4088 16.7392 72.2955 16.5126 73.2688 16.5126C74.0288 16.5126 74.7288 16.6526 75.3688 16.9326C76.0088 17.2126 76.5622 17.6126 77.0288 18.1326L75.3488 19.8326C75.0955 19.5526 74.7888 19.3392 74.4288 19.1926C74.0822 19.0459 73.6955 18.9726 73.2688 18.9726C72.7888 18.9726 72.3555 19.0859 71.9688 19.3126C71.5955 19.5259 71.2955 19.8259 71.0688 20.2126C70.8555 20.5859 70.7488 21.0326 70.7488 21.5526C70.7488 22.0592 70.8555 22.5126 71.0688 22.9126C71.2955 23.2992 71.5955 23.6059 71.9688 23.8326C72.3555 24.0459 72.7888 24.1526 73.2688 24.1526C73.7088 24.1526 74.1022 24.0792 74.4488 23.9326C74.8088 23.7726 75.1155 23.5459 75.3688 23.2526L77.0688 24.9526C76.5755 25.4859 76.0088 25.8926 75.3688 26.1726C74.7288 26.4526 74.0288 26.5926 73.2688 26.5926ZM82.9577 26.5926C81.9444 26.5926 81.0444 26.3792 80.2577 25.9526C79.4711 25.5126 78.8444 24.9126 78.3777 24.1526C77.9244 23.3926 77.6977 22.5259 77.6977 21.5526C77.6977 20.5926 77.9177 19.7392 78.3577 18.9926C78.8111 18.2326 79.4244 17.6326 80.1977 17.1926C80.9711 16.7392 81.8311 16.5126 82.7777 16.5126C83.7111 16.5126 84.5311 16.7259 85.2377 17.1526C85.9577 17.5659 86.5177 18.1392 86.9177 18.8726C87.3311 19.5926 87.5377 20.4126 87.5377 21.3326C87.5377 21.5059 87.5244 21.6859 87.4977 21.8726C87.4844 22.0459 87.4511 22.2459 87.3977 22.4726L79.2777 22.4926V20.5326L86.1777 20.5126L85.1177 21.3326C85.0911 20.7592 84.9844 20.2792 84.7977 19.8926C84.6244 19.5059 84.3644 19.2126 84.0177 19.0126C83.6844 18.7992 83.2711 18.6926 82.7777 18.6926C82.2577 18.6926 81.8044 18.8126 81.4177 19.0526C81.0311 19.2792 80.7311 19.6059 80.5177 20.0326C80.3177 20.4459 80.2177 20.9392 80.2177 21.5126C80.2177 22.0992 80.3244 22.6126 80.5377 23.0526C80.7644 23.4792 81.0844 23.8126 81.4977 24.0526C81.9111 24.2792 82.3911 24.3926 82.9377 24.3926C83.4311 24.3926 83.8777 24.3126 84.2777 24.1526C84.6777 23.9792 85.0244 23.7259 85.3177 23.3926L86.8577 24.9326C86.3911 25.4792 85.8177 25.8926 85.1377 26.1726C84.4711 26.4526 83.7444 26.5926 82.9577 26.5926ZM89.438 26.3926V12.3326H92.158V26.3926H89.438ZM98.258 26.3926V12.3326H100.978V26.3926H98.258ZM91.158 20.3326V17.9326H99.018V20.3326H91.158ZM108.112 26.5926C107.139 26.5926 106.259 26.3726 105.472 25.9326C104.699 25.4792 104.079 24.8726 103.612 24.1126C103.159 23.3392 102.932 22.4792 102.932 21.5326C102.932 20.5859 103.159 19.7392 103.612 18.9926C104.065 18.2326 104.685 17.6326 105.472 17.1926C106.259 16.7392 107.132 16.5126 108.092 16.5126C109.079 16.5126 109.959 16.7392 110.732 17.1926C111.519 17.6326 112.139 18.2326 112.592 18.9926C113.045 19.7392 113.272 20.5859 113.272 21.5326C113.272 22.4792 113.045 23.3392 112.592 24.1126C112.139 24.8726 111.519 25.4792 110.732 25.9326C109.959 26.3726 109.085 26.5926 108.112 26.5926ZM108.092 24.1526C108.585 24.1526 109.019 24.0459 109.392 23.8326C109.779 23.6059 110.072 23.2992 110.272 22.9126C110.485 22.5126 110.592 22.0592 110.592 21.5526C110.592 21.0459 110.485 20.5992 110.272 20.2126C110.059 19.8259 109.765 19.5259 109.392 19.3126C109.019 19.0859 108.585 18.9726 108.092 18.9726C107.612 18.9726 107.185 19.0859 106.812 19.3126C106.439 19.5259 106.145 19.8259 105.932 20.2126C105.719 20.5992 105.612 21.0459 105.612 21.5526C105.612 22.0592 105.719 22.5126 105.932 22.9126C106.145 23.2992 106.439 23.6059 106.812 23.8326C107.185 24.0459 107.612 24.1526 108.092 24.1526ZM114.959 26.3926V16.7326H117.579V26.3926H114.959ZM121.259 26.3926V20.6926C121.259 20.1326 121.079 19.6992 120.719 19.3926C120.372 19.0726 119.939 18.9126 119.419 18.9126C119.072 18.9126 118.759 18.9859 118.479 19.1326C118.199 19.2659 117.979 19.4659 117.819 19.7326C117.659 19.9992 117.579 20.3192 117.579 20.6926L116.559 20.1926C116.559 19.4459 116.719 18.7992 117.039 18.2526C117.372 17.7059 117.819 17.2859 118.379 16.9926C118.939 16.6859 119.572 16.5326 120.279 16.5326C120.945 16.5326 121.552 16.6859 122.099 16.9926C122.645 17.2859 123.079 17.7059 123.399 18.2526C123.719 18.7859 123.879 19.4326 123.879 20.1926V26.3926H121.259ZM127.559 26.3926V20.6926C127.559 20.1326 127.379 19.6992 127.019 19.3926C126.672 19.0726 126.239 18.9126 125.719 18.9126C125.385 18.9126 125.072 18.9859 124.779 19.1326C124.499 19.2659 124.279 19.4659 124.119 19.7326C123.959 19.9992 123.879 20.3192 123.879 20.6926L122.379 20.3326C122.432 19.5592 122.639 18.8926 122.999 18.3326C123.359 17.7592 123.832 17.3192 124.419 17.0126C125.005 16.6926 125.659 16.5326 126.379 16.5326C127.099 16.5326 127.745 16.6859 128.319 16.9926C128.892 17.2859 129.345 17.7126 129.679 18.2726C130.012 18.8326 130.179 19.4992 130.179 20.2726V26.3926H127.559ZM136.923 26.5926C135.909 26.5926 135.009 26.3792 134.223 25.9526C133.436 25.5126 132.809 24.9126 132.343 24.1526C131.889 23.3926 131.663 22.5259 131.663 21.5526C131.663 20.5926 131.883 19.7392 132.323 18.9926C132.776 18.2326 133.389 17.6326 134.163 17.1926C134.936 16.7392 135.796 16.5126 136.743 16.5126C137.676 16.5126 138.496 16.7259 139.203 17.1526C139.923 17.5659 140.483 18.1392 140.883 18.8726C141.296 19.5926 141.503 20.4126 141.503 21.3326C141.503 21.5059 141.489 21.6859 141.463 21.8726C141.449 22.0459 141.416 22.2459 141.363 22.4726L133.243 22.4926V20.5326L140.143 20.5126L139.083 21.3326C139.056 20.7592 138.949 20.2792 138.763 19.8926C138.589 19.5059 138.329 19.2126 137.983 19.0126C137.649 18.7992 137.236 18.6926 136.743 18.6926C136.223 18.6926 135.769 18.8126 135.383 19.0526C134.996 19.2792 134.696 19.6059 134.483 20.0326C134.283 20.4459 134.183 20.9392 134.183 21.5126C134.183 22.0992 134.289 22.6126 134.503 23.0526C134.729 23.4792 135.049 23.8126 135.463 24.0526C135.876 24.2792 136.356 24.3926 136.903 24.3926C137.396 24.3926 137.843 24.3126 138.243 24.1526C138.643 23.9792 138.989 23.7259 139.283 23.3926L140.823 24.9326C140.356 25.4792 139.783 25.8926 139.103 26.1726C138.436 26.4526 137.709 26.5926 136.923 26.5926ZM146.443 26.6126C145.896 26.6126 145.356 26.5392 144.823 26.3926C144.303 26.2459 143.823 26.0459 143.383 25.7926C142.943 25.5259 142.563 25.2059 142.243 24.8326L143.803 23.2526C144.136 23.6259 144.523 23.9059 144.963 24.0926C145.403 24.2792 145.89 24.3726 146.423 24.3726C146.85 24.3726 147.17 24.3126 147.383 24.1926C147.61 24.0726 147.723 23.8926 147.723 23.6526C147.723 23.3859 147.603 23.1792 147.363 23.0326C147.136 22.8859 146.836 22.7659 146.463 22.6726C146.09 22.5659 145.696 22.4526 145.283 22.3326C144.883 22.1992 144.496 22.0326 144.123 21.8326C143.75 21.6192 143.443 21.3326 143.203 20.9726C142.976 20.5992 142.863 20.1192 142.863 19.5326C142.863 18.9192 143.01 18.3859 143.303 17.9326C143.61 17.4792 144.043 17.1259 144.603 16.8726C145.163 16.6192 145.823 16.4926 146.583 16.4926C147.383 16.4926 148.103 16.6326 148.743 16.9126C149.396 17.1926 149.936 17.6126 150.363 18.1726L148.783 19.7526C148.49 19.3926 148.156 19.1326 147.783 18.9726C147.423 18.8126 147.03 18.7326 146.603 18.7326C146.216 18.7326 145.916 18.7926 145.703 18.9126C145.503 19.0326 145.403 19.1992 145.403 19.4126C145.403 19.6526 145.516 19.8392 145.743 19.9726C145.983 20.1059 146.29 20.2259 146.663 20.3326C147.036 20.4259 147.423 20.5392 147.823 20.6726C148.236 20.7926 148.623 20.9659 148.983 21.1926C149.356 21.4192 149.656 21.7192 149.883 22.0926C150.123 22.4659 150.243 22.9459 150.243 23.5326C150.243 24.4792 149.903 25.2326 149.223 25.7926C148.543 26.3392 147.616 26.6126 146.443 26.6126Z" fill="#2B47D9"/>
</svg>
