<svg width="148" height="118" viewBox="0 0 148 118" fill="none" xmlns="http://www.w3.org/2000/svg">
<g clip-path="url(#clip0_8345_163841)">
<rect width="148" height="118" rx="8" fill="#E2F4FF"/>
<g clip-path="url(#clip1_8345_163841)">
<path d="M70.3798 81.4353L69.9887 81.1489C70.0465 81.0675 75.7731 73.1134 74.6983 69.7819C74.4987 69.1707 74.0838 68.7697 73.4237 68.5572L73.5721 68.0936C74.3751 68.353 74.9076 68.8698 75.1529 69.6304C76.3094 73.1938 70.6191 81.0964 70.3751 81.4343L70.3798 81.4353Z" fill="#231F20"/>
<path d="M65.7223 83.3431C64.4737 83.3714 63.4798 84.4059 63.5048 85.6636C63.5298 86.9214 64.5599 87.9124 65.8132 87.8852C67.0665 87.8579 68.0557 86.8224 68.0296 85.5694C68.0035 84.3163 66.9745 83.3206 65.7259 83.3489L65.7223 83.3431ZM65.8029 87.5996C64.7089 87.6228 63.8095 86.7555 63.7882 85.6576C63.767 84.5596 64.6385 83.6518 65.7268 83.6323C66.815 83.6128 67.7191 84.4812 67.7414 85.5744C67.7637 86.6676 66.8969 87.5764 65.8029 87.5996Z" stroke="#231F20" stroke-miterlimit="10"/>
<path d="M65.7223 83.3431C64.4737 83.3714 63.4798 84.4059 63.5048 85.6636C63.5298 86.9214 64.5599 87.9124 65.8132 87.8852C67.0665 87.8579 68.0557 86.8224 68.0296 85.5694C68.0035 84.3163 66.9745 83.3206 65.7259 83.3489L65.7223 83.3431ZM65.8029 87.5996C64.7089 87.6228 63.8095 86.7555 63.7882 85.6576C63.767 84.5596 64.6385 83.6518 65.7268 83.6323C66.815 83.6128 67.7191 84.4812 67.7414 85.5744C67.7637 86.6676 66.8969 87.5764 65.8029 87.5996Z" stroke="#231F20" stroke-miterlimit="10"/>
<path d="M65.7223 83.3431C64.4737 83.3714 63.4798 84.4059 63.5048 85.6636C63.5298 86.9214 64.5599 87.9124 65.8132 87.8852C67.0665 87.8579 68.0557 86.8224 68.0296 85.5694C68.0035 84.3163 66.9745 83.3206 65.7259 83.3489L65.7223 83.3431ZM65.8029 87.5996C64.7089 87.6228 63.8095 86.7555 63.7882 85.6576C63.767 84.5596 64.6385 83.6518 65.7268 83.6323C66.815 83.6128 67.7191 84.4812 67.7414 85.5744C67.7637 86.6676 66.8969 87.5764 65.8029 87.5996Z" stroke="#231F20" stroke-miterlimit="10"/>
<path d="M65.6433 79.3112C62.1774 79.3843 59.4188 82.2643 59.4857 85.7426C59.5385 88.6215 61.5086 91.0058 64.1536 91.7028C64.7054 91.8463 65.2873 91.922 65.8846 91.9068C66.4819 91.8915 67.0621 91.7979 67.6054 91.6265C70.2171 90.8154 72.096 88.3494 72.0374 85.4742C71.9705 81.9959 69.1055 79.2323 65.6396 79.3054L65.6433 79.3112ZM67.5946 90.9234C67.0529 91.1101 66.4742 91.219 65.8722 91.2332C65.2702 91.2474 64.6904 91.1622 64.1381 90.9987C61.8708 90.3168 60.2054 88.2293 60.1569 85.729C60.0964 82.6198 62.5576 80.0508 65.6557 79.9847C68.7538 79.9187 71.3093 82.3844 71.3699 85.4936C71.4184 87.9939 69.8322 90.1478 67.5936 90.9282L67.5946 90.9234Z" fill="#0AA9EF"/>
<path d="M65.655 79.9837C62.5569 80.0498 60.1004 82.6198 60.1562 85.728C60.2047 88.2283 61.8701 90.3157 64.1374 90.9976C64.684 91.1648 65.2637 91.25 65.8715 91.2321C66.4793 91.2143 67.0512 91.1138 67.5939 90.9224C69.8315 90.1467 71.4177 87.9929 71.3703 85.4878C71.3097 82.3786 68.7531 79.9176 65.656 79.979L65.655 79.9837ZM67.5844 90.5675C67.0442 90.7694 66.4692 90.884 65.8624 90.8972C65.2557 90.9103 64.677 90.8204 64.1279 90.6427C62.0518 89.9688 60.5353 88.034 60.4889 85.723C60.4305 82.8031 62.7441 80.3849 65.6583 80.3223C68.5678 80.2587 70.9734 82.5766 71.026 85.5001C71.0724 87.8111 69.6301 89.8085 67.5786 90.5711L67.5844 90.5675Z" fill="#03447A"/>
<path d="M65.7223 83.3431C64.4737 83.3714 63.4798 84.4059 63.5048 85.6636C63.5298 86.9214 64.5599 87.9124 65.8132 87.8852C67.0665 87.8579 68.0557 86.8224 68.0296 85.5694C68.0035 84.3163 66.9745 83.3206 65.7259 83.3489L65.7223 83.3431ZM65.8029 87.5996C64.7089 87.6228 63.8095 86.7555 63.7882 85.6576C63.767 84.5596 64.6385 83.6518 65.7268 83.6323C66.815 83.6128 67.7191 84.4812 67.7414 85.5744C67.7637 86.6676 66.8969 87.5764 65.8029 87.5996Z" fill="#03447A"/>
<path d="M65.6573 80.3245C62.7478 80.3881 60.4353 82.8016 60.4879 85.7252C60.5343 88.0362 62.0508 89.971 64.1269 90.6448C64.6713 90.8215 65.2547 90.9124 65.8614 90.8993C66.4682 90.8862 67.0432 90.7716 67.5834 90.5696C69.6292 89.8106 71.0714 87.8133 71.0308 85.4986C70.9724 82.5787 68.5715 80.2619 65.6631 80.3208L65.6573 80.3245ZM65.8054 87.8806C64.5568 87.9089 63.5231 86.9121 63.497 85.659C63.4709 84.406 64.4659 83.3668 65.7145 83.3385C66.963 83.3102 67.9967 84.307 68.0181 85.559C68.0395 86.811 67.0492 87.8512 65.8017 87.8748L65.8054 87.8806Z" fill="#0AA9EF"/>
<path d="M65.8826 91.9126C66.4799 91.8973 67.0601 91.8037 67.6033 91.6323L67.9204 107.976L66.0854 109.076L64.4453 106.92L64.4025 104.659C64.401 104.599 64.4326 104.547 64.4835 104.518L65.8513 103.781C65.9357 103.736 65.9591 103.631 65.9022 103.554L64.4292 101.425C64.377 101.349 64.3993 101.25 64.479 101.203L65.7572 100.446C65.8543 100.388 65.8594 100.255 65.7757 100.187L64.3536 99.0681C64.3154 99.0396 64.2956 98.9954 64.2957 98.9507L64.2847 98.3371C64.2827 98.3019 64.2938 98.2745 64.3106 98.2435L65.2494 96.8589C65.2947 96.7895 65.2844 96.7027 65.2175 96.648L64.2879 95.8931C64.2545 95.8658 64.23 95.8205 64.2301 95.7758L64.2127 94.9918C64.2144 94.9624 64.2207 94.934 64.2307 94.9114L64.8544 93.8288C64.887 93.7715 64.883 93.701 64.8397 93.6515L64.2066 92.8985C64.1837 92.8685 64.1712 92.8359 64.1692 92.8007L64.1468 91.7075C64.6987 91.851 65.2806 91.9267 65.8779 91.9115L65.8826 91.9126Z" fill="#AAAAAA"/>
<path d="M62.5991 90.9119L64.5906 90.2848L60.8081 107.166L58.6709 107.825L57.5455 105.228L58.0628 102.919C58.0766 102.858 58.1212 102.813 58.1794 102.796L59.7507 102.388C59.845 102.364 59.8977 102.262 59.8639 102.17L58.897 99.6376C58.8621 99.5503 58.909 99.4515 59.0044 99.4232L60.4857 98.975C60.5973 98.9404 60.6365 98.81 60.5675 98.72L59.4015 97.2314C59.3701 97.1946 59.3619 97.1431 59.3725 97.0957L59.5124 96.4712C59.5198 96.4381 59.5367 96.4071 59.5619 96.3829L60.8596 95.2078C60.9215 95.1522 60.9333 95.0554 60.879 94.9886L60.1229 93.9894C60.0916 93.9525 60.0834 93.901 60.094 93.8537L60.2731 93.0541C60.2795 93.0257 60.2953 92.9994 60.3158 92.9742L61.2146 92.0328C61.2603 91.9834 61.2726 91.9066 61.2418 91.8451L60.7853 90.9229C60.7681 90.8892 60.7661 90.854 60.7745 90.8161L61.0703 89.4961L62.6038 90.913L62.5991 90.9119Z" fill="#AAAAAA"/>
<path d="M65.7321 76.9112L58.9108 79.0598L57.3429 86.0575L61.0617 89.4945L62.5952 90.9113L64.5867 90.2843L69.4164 88.7627L70.9843 81.765L65.7321 76.9112ZM68.4735 87.8906L64.8687 89.0257L62.8772 89.6528L61.3437 88.2359L58.5678 85.6711L59.8537 79.9319L65.4501 78.1697L69.7595 82.1514L68.4735 87.8906Z" fill="#0AA9EF"/>
<path d="M65.4529 78.1722L59.8565 79.9344L58.5706 85.6736L61.3465 88.2384L62.88 89.6553L64.8715 89.0282L68.4763 87.8931L69.7622 82.1539L65.4529 78.1722ZM68.2187 87.6515L64.9499 88.6781L62.9584 89.3052L61.4249 87.8883L58.9067 85.5651L60.1152 80.1713L65.3755 78.5176L69.4272 82.2577L68.2187 87.6515Z" fill="#03447A"/>
<path d="M65.3747 78.5159L60.1145 80.1695L58.906 85.5633L61.4242 87.8865L62.9577 89.3034L64.9492 88.6763L68.2179 87.6497L69.4264 82.256L65.3747 78.5159ZM66.2485 85.8371L63.5439 86.687L61.4606 84.7643L62.0829 81.987L64.7874 81.1371L66.8708 83.0597L66.2485 85.8371Z" fill="#0AA9EF"/>
<path d="M64.7846 81.134L62.08 81.984L61.4577 84.7613L63.5411 86.684L66.2457 85.834L66.8679 83.0567L64.7846 81.134ZM65.9796 85.5856L63.6206 86.3291L61.8043 84.6501L62.3471 82.2276L64.7061 81.4842L66.5224 83.1632L65.9796 85.5856Z" fill="#03447A"/>
<path d="M60.0591 91.6307L51.4395 106.201L49.2014 106.162L48.9295 103.333L50.1341 101.293C50.1656 101.24 50.2223 101.208 50.2857 101.212L51.9064 101.312C52.0039 101.319 52.0863 101.238 52.0782 101.142L51.939 98.4274C51.9356 98.3322 52.0123 98.255 52.1061 98.2561L53.6573 98.2906C53.771 98.2913 53.8551 98.1809 53.8151 98.0726L53.1659 96.2874C53.1471 96.2385 53.153 96.1901 53.1777 96.1459L53.5045 95.5931C53.5214 95.5621 53.5455 95.5426 53.5791 95.5253L55.1794 94.8106C55.2571 94.7733 55.2961 94.6877 55.2696 94.6072L54.8582 93.4169C54.8431 93.3738 54.8501 93.3207 54.8738 93.2813L55.2942 92.5755C55.31 92.5492 55.3294 92.5287 55.3572 92.5151L56.5052 91.8977C56.5665 91.8668 56.6013 91.8 56.5879 91.7274L56.4407 90.7056C56.434 90.6694 56.4424 90.6315 56.464 90.6016L56.9486 89.7859L60.058 91.6354L60.0591 91.6307Z" fill="#AAAAAA"/>
<path d="M64.297 85.999C64.2354 86.1194 64.0876 86.1608 63.9735 86.0955L59.9121 83.6799C59.7991 83.6099 59.7639 83.4579 59.8422 83.3512L61.9484 80.2903C62.02 80.192 62.1505 80.1616 62.2551 80.2248L65.8756 82.3776C65.9802 82.4408 66.0197 82.5739 65.9659 82.6811L64.296 86.0038L64.297 85.999Z" fill="#231F20"/>
<path d="M65.9119 89.629L69.659 82.1606C69.7832 81.9151 69.6965 81.6174 69.4601 81.48L61.3194 76.6399C61.0829 76.5024 60.781 76.5689 60.6269 76.7928L55.8886 83.6714C55.7187 83.9216 55.7912 84.2608 56.048 84.4177L65.18 89.8476C65.4379 89.9998 65.7718 89.9007 65.9061 89.6327L65.9119 89.629ZM63.9758 86.0996L59.9143 83.684C59.8013 83.614 59.7661 83.462 59.8444 83.3553L61.9507 80.2943C62.0222 80.1961 62.1527 80.1657 62.2573 80.2289L65.8778 82.3817C65.9824 82.4449 66.0219 82.5779 65.9682 82.6852L64.2982 86.0079C64.2366 86.1282 64.0887 86.1696 63.9747 86.1043L63.9758 86.0996Z" fill="#0AA9EF"/>
<path d="M65.967 82.6763L64.297 85.999C64.2354 86.1194 64.0876 86.1608 63.9735 86.0955L59.9121 83.6799C59.7991 83.6099 59.7639 83.4579 59.8422 83.3512L61.9484 80.2903C62.02 80.192 62.1505 80.1616 62.2551 80.2248L65.8756 82.3776C65.9802 82.4408 66.0197 82.5739 65.9659 82.6811L65.967 82.6763Z" fill="#231F20"/>
<path d="M66.2346 90.3566L70.4014 82.053C70.5368 81.7802 70.4423 81.451 70.1807 81.293L61.1319 75.9115C60.8693 75.7582 60.5359 75.8326 60.3613 76.0817L55.0939 83.7312C54.9035 84.0066 54.9864 84.3879 55.2741 84.5617L65.4235 90.5972C65.7123 90.7662 66.0824 90.6604 66.2346 90.3566ZM65.1818 89.8424L56.0499 84.4125C55.792 84.2603 55.7158 83.9153 55.8904 83.6662L60.6288 76.7876C60.7829 76.5637 61.0859 76.4925 61.3213 76.6347L69.4619 81.4748C69.6984 81.6122 69.7841 81.9147 69.6608 82.1554L65.9138 89.6238C65.7795 89.8919 65.4455 89.9909 65.1876 89.8387L65.1818 89.8424Z" fill="#057BC4"/>
<path d="M64.297 85.999C64.2354 86.1194 64.0876 86.1608 63.9735 86.0955L59.9121 83.6799C59.7991 83.6099 59.7639 83.4579 59.8422 83.3512L61.9484 80.2903C62.02 80.192 62.1505 80.1616 62.2551 80.2248L65.8756 82.3776C65.9802 82.4408 66.0197 82.5739 65.9659 82.6811L64.296 86.0038L64.297 85.999Z" fill="#03447A"/>
<path d="M63.8405 85.6817L60.3425 83.6011C60.2415 83.5437 60.2162 83.4138 60.283 83.3144L62.1015 80.676C62.1604 80.5898 62.2747 80.5657 62.3673 80.6163L65.485 82.4726C65.5766 82.5279 65.6062 82.6388 65.5603 82.7329L64.1221 85.5957C64.0694 85.6982 63.9415 85.7391 63.8416 85.677L63.8405 85.6817Z" fill="white"/>
<path d="M63.3577 89.364L61.5075 92.4972L55.5645 88.9594L57.4136 85.8309L57.7714 86.0452L56.0833 88.8968L61.3155 92.007L62.9989 89.1544L63.3577 89.364Z" fill="#02294C"/>
<path d="M57.7736 86.041L56.0859 88.8945L61.314 92.0032L63.0017 89.1497L57.7736 86.041Z" fill="#03447A"/>
<path d="M135.257 72.8529C128.172 65.4866 118.692 42.2844 106.467 40.4745C101.145 39.6894 95.9148 38.9549 91.4258 38.3366C91.4258 38.3366 91.2766 38.3181 91.0027 38.2816C90.9697 38.2742 90.9299 38.2752 90.8922 38.2668C90.8592 38.2594 90.8193 38.2604 90.7816 38.2519C90.1882 38.1836 89.2198 38.066 87.9974 37.9113L87.988 37.9092C85.3095 37.5824 81.4138 37.1219 77.5447 36.6972L77.54 36.6962C74.3803 37.4789 69.6189 41.1027 66.5246 42.7647C65.917 43.0907 65.371 43.341 64.9195 43.4783C63.8583 43.7971 62.1107 44.7272 60.3247 45.9171C60.6406 46.5394 60.9343 47.4152 60.6631 48.1842C60.6071 48.3456 60.5229 48.5006 60.4151 48.6504C59.4598 49.932 56.2753 54.2271 54.387 51.4339C53.9753 52.2112 53.9059 52.8963 54.3284 53.4183C56.3694 55.9277 61.0483 56.6034 68.8731 50.7045C68.8731 50.7045 79.2015 48.5417 81.4112 46.9846C79.2015 48.5417 72.7812 56.8969 71.6859 57.213C71.2413 57.3419 69.5263 58.657 67.8317 60.3444C68.5482 60.8577 69.2091 61.7511 68.3077 63.0796C67.1549 64.779 65.2051 66.6776 63.9794 66.1843C63.9403 66.7122 64.0801 67.1708 64.4495 67.5319C65.4189 68.4845 66.7579 68.5609 68.0474 68.2833C67.8227 68.6901 67.6491 69.1332 67.5352 69.6195C67.1666 71.1766 67.5083 72.1476 68.2192 72.774C67.8939 70.9123 68.9157 68.2294 69.5948 67.8052C69.6063 67.7978 69.6121 67.7942 69.6226 67.7915C69.6399 67.7805 69.6619 67.7705 69.6782 67.7643L69.7096 67.7564C70.537 67.5095 75.3939 67.8325 76.739 70.2009C77.0091 70.6739 77.1408 71.2351 77.0626 71.8933C76.8677 73.5142 76.1629 74.3402 75.398 74.7501C76.5713 75.4553 79.6098 76.141 82.7234 76.9778C83.8768 77.2859 85.0354 77.6151 86.1174 77.9768C87.5407 78.4497 88.8235 78.9756 89.7644 79.5691C93.3631 81.8412 101.554 83.9597 101.554 83.9597C108.022 91.5605 114.866 92.5373 125.324 93.9464C133.439 95.039 168.858 113.355 184.99 121.804L194.913 94.7212C186.166 92.2593 141.633 79.4939 135.257 72.8529ZM100.398 63.83L100.23 64.16L97.3995 69.6575C94.6187 68.8158 88.2087 67.5386 88.2087 67.5386C88.2087 67.5386 85.0339 65.8484 81.0395 64.8788C79.8043 64.5822 78.1644 64.4135 76.4526 64.4772C77.1441 63.8868 77.8453 63.2091 78.1437 62.6946C78.8284 61.5164 84.9282 58.5452 85.8906 57.3646C85.8906 57.3646 85.8916 57.3599 85.8974 57.3562C86.8718 56.1882 90.7286 57.8822 95.1449 57.4108C95.1449 57.4108 96.066 57.806 97.2051 58.1556C98.3621 58.5142 99.7371 58.8273 100.588 58.6303C100.588 58.6303 101.452 60.1208 102.248 61.2283C101.149 62.5324 100.398 63.83 100.398 63.83Z" fill="#7C4621"/>
<path d="M83.5739 42.9044L81.2031 46.8516L81.6167 47.1013L83.9875 43.1542L83.5739 42.9044Z" fill="#593015"/>
<path d="M81.5548 47.1818L81.2771 46.7867C83.512 45.2055 101.606 44.3899 102.376 44.3538L102.397 44.8355C95.9333 45.1215 83.2549 45.9776 81.5558 47.1771L81.5548 47.1818Z" fill="#593015"/>
<path d="M68.2588 68.3981L67.8361 68.1642C69.6585 64.8459 74.4611 64.307 76.4422 64.2342L76.4619 64.7206C74.5651 64.7925 69.9622 65.3015 68.2577 68.4028L68.2588 68.3981Z" fill="#593015"/>
<path d="M98.4674 70.3172L98.3429 70.2545C98.1425 70.155 97.8043 70.0295 97.3321 69.884L97.4758 69.4193C97.8878 69.5464 98.2045 69.6571 98.4295 69.7572L105.288 65.1672L105.554 65.5697L98.4684 70.3125L98.4674 70.3172Z" fill="#593015"/>
<path d="M102.43 61.3813L102.065 61.066C103.778 59.05 105.334 58.1365 106.694 58.3418L106.621 58.8223C105.147 58.5964 103.531 60.0878 102.435 61.3776L102.43 61.3813Z" fill="#593015"/>
<path d="M100.754 58.8025L100.416 58.4536C100.416 58.4536 102.059 56.8193 102.474 54.373L102.95 54.455C102.509 57.0642 100.824 58.7337 100.754 58.8025Z" fill="#593015"/>
<path d="M95.2847 57.6067L95.007 57.2115C96.2472 56.3366 97.3171 55.3391 97.2989 55.0667L97.7645 54.9325C97.9655 55.6036 96.3003 56.8951 95.2847 57.6067Z" fill="#593015"/>
<path d="M86.1302 57.4234L85.6764 57.2621C86.2268 55.9544 86.648 54.3395 86.1971 53.6571L86.6033 53.3903C87.277 54.4257 86.4977 56.5567 86.1302 57.4234Z" fill="#593015"/>
<path d="M75.2884 60.3589L75.0078 60.7539L78.0076 62.8976L78.2882 62.5026L75.2884 60.3589Z" fill="#593015"/>
<path d="M82.4866 77.0194C82.0925 74.8243 81.9972 71.9806 83.8001 70.9138L84.0432 71.331C82.3998 72.3044 82.6583 75.2591 82.9615 76.932L82.4866 77.0194Z" fill="#593015"/>
<path d="M86.3145 78.1119L85.9144 77.8434C86.7907 76.5391 87.6797 74.5371 86.936 72.4226L87.3928 72.2616C88.1983 74.5638 87.2507 76.7167 86.3135 78.1167L86.3145 78.1119Z" fill="#593015"/>
<path d="M77.5421 36.6952C74.3825 37.4779 69.6211 41.1017 66.5267 42.7637C64.9748 42.5998 63.1023 42.4088 60.9349 42.1866C54.1205 41.4995 55.7589 38.2293 56.4487 36.0783C56.5786 35.6751 56.8564 35.4293 57.2329 35.295C55.8572 39.1159 60.2678 38.2061 62.8036 38.1978C63.0414 38.1965 63.2422 38.1619 63.4152 38.0964C64.2622 37.7843 64.4565 36.7843 64.4115 35.7705C64.4838 35.7569 64.5504 35.747 64.6122 35.736C65.3775 35.5895 68.1135 35.7702 71.5663 36.0867C73.4174 36.2629 75.4732 36.4751 77.5421 36.6952Z" fill="#723F22"/>
<path d="M63.4136 38.0942C62.9428 37.611 62.4969 36.9944 62.6601 36.5092C62.7456 36.26 62.9543 36.0136 63.2147 35.7788C63.6432 35.8102 64.0477 35.8164 64.4098 35.7683C64.4549 36.7821 64.2605 37.7821 63.4136 38.0942Z" fill="#C99471"/>
<path d="M63.4168 38.0972C63.2438 38.1627 63.043 38.1973 62.8052 38.1986C60.2694 38.2069 55.8588 39.1167 57.2345 35.2958C58.5634 34.7986 61.1683 35.6307 63.218 35.7818C62.9575 36.0166 62.7489 36.2631 62.6634 36.5122C62.5002 36.9974 62.946 37.6141 63.4168 38.0972Z" fill="#EFBC9A"/>
<path d="M88.5247 37.9769C84.4166 37.4043 80.5253 37.2777 79.0134 37.0234C78.5651 36.9478 78.5685 37.043 77.9918 37.1871C75.9229 36.967 73.423 36.2628 71.572 36.0865C68.9761 34.3969 70.6698 31.2335 71.27 30.2997C71.3852 30.1168 71.6274 30.0518 71.9527 30.08C70.6545 32.4723 75.3071 33.2216 76.7013 33.4048C76.7636 33.4138 76.8223 33.417 76.8809 33.4202C77.3582 33.4327 77.7082 33.218 77.9568 32.9258L77.9615 32.9269L88.5294 37.978L88.5247 37.9769Z" fill="#723F22"/>
<path d="M76.8747 33.4188C76.816 33.4156 76.7573 33.4123 76.695 33.4034C75.3008 33.2202 70.6482 32.4709 71.9464 30.0785C73.0229 30.1558 75.0048 31.206 76.3309 31.9802C76.2428 32.4176 76.5274 32.9584 76.8747 33.4188Z" fill="#EFBC9A"/>
<path d="M77.9477 32.9286C77.6992 33.2208 77.3491 33.4355 76.8719 33.423C76.5247 32.9626 76.24 32.4218 76.3281 31.9844C77.1134 32.4336 77.6667 32.7911 77.6667 32.7911L77.9477 32.9286Z" fill="#C99471"/>
<path d="M69.7801 47.0184L69.3047 46.9336L68.6396 50.6566L69.115 50.7414L69.7801 47.0184Z" fill="#593015"/>
<path d="M60.6635 48.1838C60.116 47.7779 59.5606 47.1864 59.5536 46.4445C59.8119 46.2638 60.0691 46.0879 60.3252 45.9167C60.6411 46.539 60.9348 47.4148 60.6635 48.1838Z" fill="#C99471"/>
<path d="M60.66 48.1851C60.6041 48.3465 60.5198 48.5015 60.412 48.6513C59.4568 49.9329 56.2723 54.228 54.384 51.4347C55.1854 49.8901 57.3252 48.0044 59.5502 46.4457C59.5571 47.1877 60.1125 47.7792 60.66 48.1851Z" fill="#EFBC9A"/>
<path d="M68.3125 63.0779C67.1596 64.7774 65.2099 66.6759 63.9842 66.1826C64.0949 64.518 65.955 62.2019 67.8365 60.3427C68.5529 60.8561 69.2139 61.7495 68.3125 63.0779Z" fill="#EFBC9A"/>
<path d="M102.248 61.2291C101.149 62.5332 100.398 63.8307 100.398 63.8307L100.23 64.1608C99.2528 62.5357 97.7039 59.8184 97.2052 58.1564C98.3621 58.515 99.7371 58.8281 100.588 58.6311C100.588 58.6311 101.452 60.1215 102.248 61.2291Z" fill="#593015"/>
<path d="M75.1016 74.5871C73.4353 73.851 69.854 74.1964 68.2278 72.7737L68.2231 72.7726C67.8978 70.9109 68.9196 68.2281 69.5987 67.8038C69.6102 67.7965 69.616 67.7928 69.6265 67.7902C69.6543 67.7765 69.6821 67.7629 69.7135 67.755C70.5409 67.5081 75.3978 67.8312 76.7429 70.1996C75.7046 70.5483 74.3564 71.2201 74.2408 72.3768C74.1719 73.0819 74.568 73.8762 75.1016 74.5871Z" fill="#EFBC9A"/>
<path d="M75.4007 74.751C75.4007 74.751 75.3877 74.7431 75.3793 74.7362C75.2925 74.682 75.1988 74.6362 75.1004 74.5893C74.5668 73.8784 74.1707 73.0841 74.2396 72.379C74.3552 71.2223 75.7034 70.5505 76.7417 70.2018C77.0119 70.6747 77.1435 71.2359 77.0653 71.8942C76.8704 73.5151 76.1657 74.341 75.4007 74.751Z" fill="#C99471"/>
<path d="M64.9982 83.8826C63.7658 83.353 62.9843 82.4673 62.6804 81.2614C61.5132 76.5974 67.8021 68.5854 68.0707 68.2481L68.4482 68.5513C68.3856 68.6317 62.0373 76.7099 63.1522 81.1435C63.4224 82.2127 64.0848 82.9673 65.1917 83.4389L65.003 83.8836L64.9982 83.8826Z" fill="#231F20"/>
</g>
</g>
<defs>
<clipPath id="clip0_8345_163841">
<rect width="148" height="118" rx="8" fill="white"/>
</clipPath>
<clipPath id="clip1_8345_163841">
<rect width="148.088" height="79.247" fill="white" transform="translate(58.3281 27) rotate(12.629)"/>
</clipPath>
</defs>
</svg>
