<svg width="30" height="31" viewBox="0 0 30 31" fill="none" xmlns="http://www.w3.org/2000/svg">
<path d="M15.1544 0.797815C15.0103 0.674942 14.827 0.607422 14.6374 0.607422C14.4479 0.607422 14.2645 0.674942 14.1205 0.797815L2.70801 10.5528V22.0208C2.70801 22.6518 2.95938 23.257 3.40682 23.7032C3.85426 24.1494 4.46112 24.4001 5.09389 24.4001H11.4562C11.6672 24.4001 11.8695 24.3165 12.0186 24.1678C12.1678 24.0191 12.2515 23.8173 12.2515 23.607V18.8485C12.2515 18.2175 12.5029 17.6123 12.9503 17.1661C13.3978 16.7199 14.0046 16.4692 14.6374 16.4692C15.2702 16.4692 15.8771 16.7199 16.3245 17.1661C16.7719 17.6123 17.0233 18.2175 17.0233 18.8485V23.607C17.0233 23.8173 17.1071 24.0191 17.2562 24.1678C17.4054 24.3165 17.6077 24.4001 17.8186 24.4001H24.181C24.8137 24.4001 25.4206 24.1494 25.868 23.7032C26.3155 23.257 26.5668 22.6518 26.5668 22.0208V10.5528L15.1544 0.797815Z" fill="#2B47D9"/>
<path d="M0 26.3926H29.2746" stroke="#0A9BF4" stroke-width="2"/>
<path d="M2.70801 29.3926H26.5668" stroke="#F9B223" stroke-width="2"/>
</svg>
