<svg width="19" height="19" viewBox="0 0 19 19" fill="none" xmlns="http://www.w3.org/2000/svg">
<path d="M9.85857 0.518686C9.76784 0.441082 9.65238 0.398438 9.53299 0.398438C9.4136 0.398438 9.29813 0.441082 9.2074 0.518686L2.01953 6.67972V13.9227C2.01953 14.3212 2.17785 14.7034 2.45966 14.9852C2.74147 15.2671 3.12368 15.4254 3.52222 15.4254H7.5294C7.66224 15.4254 7.78965 15.3726 7.88358 15.2787C7.97752 15.1847 8.03029 15.0573 8.03029 14.9245V11.9191C8.03029 11.5206 8.18861 11.1383 8.47042 10.8565C8.75223 10.5747 9.13445 10.4164 9.53299 10.4164C9.93152 10.4164 10.3137 10.5747 10.5955 10.8565C10.8774 11.1383 11.0357 11.5206 11.0357 11.9191V14.9245C11.0357 15.0573 11.0884 15.1847 11.1824 15.2787C11.2763 15.3726 11.4037 15.4254 11.5366 15.4254H15.5437C15.9423 15.4254 16.3245 15.2671 16.6063 14.9852C16.8881 14.7034 17.0464 14.3212 17.0464 13.9227V6.67972L9.85857 0.518686Z" fill="white"/>
<path d="M0.314453 16.4395H18.7524" stroke="#0A9BF4" stroke-width="0.921896"/>
<path d="M2.01953 17.8223H17.0464" stroke="#F9B223" stroke-width="0.921896"/>
</svg>
