<svg width="131" height="130" viewBox="0 0 131 130" fill="none" xmlns="http://www.w3.org/2000/svg">
<path d="M19.5492 111.133C15.4698 108.785 14.1321 103.323 16.6918 99.277C27.6131 82.0104 40.5338 66.3493 54.6219 52.3483C68.8127 38.2251 84.1423 25.7113 100.009 14.2934C103.612 11.6999 108.55 12.5462 111.133 16.2239C113.639 19.7911 113.045 24.7753 109.755 27.5755C95.3106 39.8683 81.6866 53.0009 69.5199 67.2476C57.5391 81.2499 47.0221 96.3559 38.5227 112.434C36.3738 116.498 31.4728 117.993 27.565 115.745L19.5492 111.133Z" fill="#2B47D9"/>
<path d="M102.862 107.169C98.8744 109.515 93.7083 108.303 91.2708 104.372C82.9937 91.0246 72.3649 78.7383 60.4634 67.4556C48.3656 55.9805 35.0003 45.4778 21.0864 35.4834C19.2963 34.1974 18.0704 32.2713 17.6632 30.1052C17.256 27.939 17.6989 25.6992 18.8998 23.851L20.4988 21.3875C21.724 19.5021 23.6396 18.1722 25.8343 17.6832C28.029 17.1942 30.328 17.5851 32.2378 18.7719C47.2801 28.1189 62.0884 38.1978 76.0933 49.7951C89.9682 61.3014 103.103 74.4405 114.004 89.7324C116.937 93.8469 115.742 99.5916 111.386 102.154L102.862 107.169Z" fill="#2B47D9"/>
</svg>
