<svg width="148" height="118" viewBox="0 0 148 118" fill="none" xmlns="http://www.w3.org/2000/svg">
<g clip-path="url(#clip0_8345_163822)">
<rect width="148" height="118" rx="8" fill="#E2F4FF"/>
<g clip-path="url(#clip1_8345_163822)">
<path d="M32.8438 49.9687V129H83.9209V36.9141L32.8438 49.9687ZM35.0633 126.323V51.3986L36.7787 50.9591V126.323H35.0633Z" fill="#03447A"/>
<path d="M111.193 129H83.9219V36.9141L111.193 49.9687V129Z" fill="#011B2D"/>
<path d="M112.895 46.9775V50.8918L83.9219 36.9144V33L112.895 46.9775Z" fill="#011B2D"/>
<path d="M83.9212 33V36.9144L31 50.449V46.5346L83.9212 33Z" fill="#011B2D"/>
<path d="M36.7779 50.7109V126.074H35.0625V51.1504L36.7779 50.7109Z" fill="#011B2D"/>
<path d="M81.3534 39.5039V126.323H36.7793V50.9597L81.3534 39.5039Z" fill="#0AA9EF"/>
<path d="M109.467 126.325H86.3203V40.043L109.467 50.6469V126.325Z" fill="#03447A"/>
<path d="M138.547 99.2006C135.624 97.0677 134.984 92.9708 137.119 90.0502C139.254 87.1296 143.355 86.4908 146.278 88.6237C149.202 90.7567 152.345 96.6823 150.21 99.6029C148.075 102.523 141.47 101.334 138.547 99.2006Z" fill="#127217"/>
<path d="M132.573 100.676C135.645 98.7624 136.585 94.7229 134.67 91.6536C132.755 88.5843 128.712 87.6446 125.64 89.5579C122.568 91.4711 118.995 97.15 120.91 100.219C122.825 103.289 129.5 102.589 132.573 100.676Z" fill="#127217"/>
<path d="M146.62 83.0946C146.62 89.9127 141.751 95.4428 135.746 95.4428C129.74 95.4428 124.871 89.916 124.871 83.0946C124.871 76.2732 129.74 62.7656 135.746 62.7656C141.751 62.7656 146.62 76.2732 146.62 83.0946Z" fill="#00CE13"/>
<path d="M137.816 118.111H134.176V110.249C134.176 102.744 134.622 95.2469 135.509 87.7968C135.577 87.2188 136.416 87.2188 136.483 87.7968C137.37 95.2469 137.816 102.744 137.816 110.249V118.111Z" fill="#9E6336"/>
<path d="M136.84 103.136C136.163 103.136 135.72 103.078 135.662 103.071L135.889 101.398C135.926 101.405 139.787 101.885 142.405 99.5896C144.077 98.1259 144.926 95.8206 144.926 92.7344H146.618C146.618 96.3344 145.572 99.0724 143.508 100.871C141.265 102.828 138.413 103.136 136.836 103.136H136.84Z" fill="#9E6336"/>
<path d="M134.682 105.843C133.105 105.843 130.253 105.535 128.01 103.578C125.946 101.779 124.9 99.0414 124.9 95.4414H126.592C126.592 98.5276 127.441 100.833 129.113 102.297C131.735 104.592 135.592 104.112 135.633 104.105L135.86 105.778C135.802 105.785 135.362 105.843 134.682 105.843Z" fill="#9E6336"/>
<path d="M134.342 88.0099C134.342 92.5597 130.65 96.251 126.093 96.251C121.535 96.251 117.844 92.5631 117.844 88.0099C117.844 83.4566 121.535 74.4414 126.093 74.4414C130.65 74.4414 134.342 83.4566 134.342 88.0099Z" fill="#62DD68"/>
<path d="M154 85.0605C154 89.6103 150.308 93.3016 145.751 93.3016C141.193 93.3016 137.502 89.6137 137.502 85.0605C137.502 80.5072 141.193 72.9219 145.751 72.9219C150.308 72.9219 154 80.5106 154 85.0605Z" fill="#62DD68"/>
</g>
</g>
<defs>
<clipPath id="clip0_8345_163822">
<rect width="148" height="118" rx="8" fill="white"/>
</clipPath>
<clipPath id="clip1_8345_163822">
<rect width="123" height="96" fill="white" transform="translate(31 33)"/>
</clipPath>
</defs>
</svg>
