<svg width="28" height="31" viewBox="0 0 28 31" fill="none" xmlns="http://www.w3.org/2000/svg">
<g clip-path="url(#clip0_8298_56176)">
<path d="M14.4891 2.05003C14.3543 1.93502 14.1827 1.87183 14.0053 1.87183C13.8279 1.87183 13.6563 1.93502 13.5215 2.05003L2.83984 11.1803V21.9139C2.83984 22.5045 3.07512 23.0709 3.4939 23.4886C3.91269 23.9062 4.48068 24.1408 5.07294 24.1408H11.0278C11.2253 24.1408 11.4146 24.0626 11.5542 23.9234C11.6938 23.7842 11.7722 23.5954 11.7722 23.3985V18.9447C11.7722 18.3541 12.0075 17.7877 12.4263 17.3701C12.8451 16.9525 13.4131 16.7178 14.0053 16.7178C14.5976 16.7178 15.1656 16.9525 15.5843 17.3701C16.0031 17.7877 16.2384 18.3541 16.2384 18.9447V23.3985C16.2384 23.5954 16.3168 23.7842 16.4564 23.9234C16.596 24.0626 16.7853 24.1408 16.9828 24.1408H22.9377C23.5299 24.1408 24.0979 23.9062 24.5167 23.4886C24.9355 23.0709 25.1708 22.5045 25.1708 21.9139V11.1803L14.4891 2.05003Z" fill="white"/>
<path d="M0.300781 26.0056H27.7007" stroke="#0A9BF4" stroke-width="1.87192"/>
<path d="M2.83984 28.8135H25.1708" stroke="#F9B223" stroke-width="1.87192"/>
</g>
<defs>
<clipPath id="clip0_8298_56176">
<rect width="27.3999" height="30.6856" fill="white" transform="translate(0.300781)"/>
</clipPath>
</defs>
</svg>
